<?xml version="1.0" standalone="no"?>
<!DOCTYPE svg PUBLIC "-//W3C//DTD SVG 20010904//EN"
 "http://www.w3.org/TR/2001/REC-SVG-20010904/DTD/svg10.dtd">
<svg version="1.0" xmlns="http://www.w3.org/2000/svg"
 width="270.000000pt" height="270.000000pt" viewBox="0 0 270.000000 270.000000"
 preserveAspectRatio="xMidYMid meet">

<g transform="translate(0.000000,270.000000) scale(0.100000,-0.100000)"
fill="#000000" stroke="none">
<path d="M1215 2692 c-2 -2 -18 -6 -37 -8 -84 -10 -124 -17 -135 -26 -7 -6
-19 -8 -27 -5 -8 3 -22 -1 -33 -8 -10 -8 -30 -15 -45 -15 -15 0 -30 -4 -33
-10 -3 -5 -17 -10 -30 -10 -13 0 -30 -7 -39 -15 -8 -8 -23 -15 -34 -15 -10 0
-27 -9 -37 -20 -10 -11 -21 -17 -25 -15 -4 3 -19 -4 -33 -15 -14 -11 -32 -20
-40 -20 -7 0 -22 -9 -32 -20 -10 -11 -24 -20 -32 -20 -7 0 -23 -11 -35 -25
-12 -14 -26 -25 -31 -25 -6 0 -19 -9 -31 -20 -12 -11 -54 -51 -94 -89 -39 -37
-72 -71 -72 -75 0 -5 -11 -17 -25 -28 -14 -11 -25 -25 -25 -33 0 -7 -7 -16
-15 -19 -9 -3 -21 -19 -26 -36 -6 -16 -15 -30 -20 -30 -5 0 -15 -15 -24 -32
-8 -18 -19 -41 -25 -50 -49 -84 -80 -150 -80 -168 0 -10 -4 -22 -10 -25 -5 -3
-10 -15 -10 -26 0 -11 -7 -30 -16 -44 -8 -13 -14 -29 -13 -37 1 -7 0 -20 -4
-28 -8 -22 -24 -112 -33 -195 -3 -22 -5 -83 -4 -135 0 -52 0 -112 0 -132 0
-20 4 -39 8 -42 5 -3 7 -17 4 -31 -2 -14 1 -32 8 -40 7 -8 10 -22 6 -31 -3 -8
-1 -25 6 -37 7 -12 11 -28 9 -35 -1 -8 5 -25 14 -39 9 -13 14 -31 11 -38 -2
-7 2 -21 9 -32 8 -10 15 -28 15 -39 0 -12 7 -27 15 -34 8 -7 15 -20 15 -30 0
-9 9 -29 20 -43 11 -14 20 -32 20 -40 0 -9 5 -19 10 -22 6 -4 17 -22 25 -41 8
-19 18 -34 23 -34 6 0 13 -11 16 -25 3 -13 15 -29 26 -35 11 -6 20 -17 20 -25
0 -8 11 -22 24 -30 13 -9 26 -25 29 -36 3 -11 14 -23 25 -26 11 -3 22 -14 25
-25 3 -11 14 -22 25 -25 11 -2 25 -16 31 -29 6 -13 17 -24 25 -24 9 0 20 -9
26 -20 6 -11 22 -23 35 -26 14 -3 25 -10 25 -14 0 -9 86 -70 99 -70 4 0 18 -9
31 -20 13 -11 31 -20 40 -20 10 0 23 -7 30 -15 7 -8 23 -15 35 -15 13 0 25 -7
29 -15 3 -9 18 -15 34 -15 16 0 35 -7 42 -15 7 -8 25 -15 41 -15 15 0 31 -5
34 -10 3 -6 19 -10 35 -10 16 0 32 -5 35 -11 4 -6 19 -9 33 -8 15 2 32 0 39
-4 6 -4 41 -9 77 -11 36 -3 69 -6 73 -9 9 -5 176 1 233 8 108 13 130 18 225
45 22 6 52 14 67 17 15 3 33 11 39 19 6 8 22 14 34 14 12 0 28 7 35 15 7 8 18
15 25 15 19 0 115 51 115 61 0 5 8 9 18 9 10 0 29 11 42 25 13 14 29 25 37 25
7 0 18 9 25 20 7 11 18 20 25 20 6 0 20 10 30 23 10 13 26 26 36 30 11 4 21
16 24 27 3 11 12 20 20 20 7 0 22 13 31 30 9 16 23 30 30 30 7 0 16 10 21 23
5 12 18 31 30 41 11 11 21 25 21 32 0 7 9 18 20 24 11 6 20 17 20 25 0 7 7 21
16 29 20 21 64 103 64 120 0 8 7 19 15 26 8 7 15 21 15 32 0 11 7 26 15 34 8
9 15 24 15 35 0 11 7 31 16 44 9 13 13 29 9 35 -3 5 1 20 9 32 9 12 13 31 10
45 -4 13 -2 23 3 23 10 0 37 196 28 209 -3 5 -1 12 4 15 13 8 0 225 -19 311
-6 28 -11 59 -11 69 0 11 -5 29 -12 40 -6 12 -10 27 -8 34 1 8 -5 24 -13 37
-9 14 -16 33 -16 43 0 11 -7 25 -15 32 -8 7 -15 23 -15 35 0 12 -7 28 -15 35
-8 7 -15 23 -15 36 0 12 -5 26 -10 29 -6 4 -17 22 -25 41 -8 19 -18 34 -23 34
-6 0 -13 11 -16 25 -3 13 -15 29 -26 35 -11 6 -20 19 -20 30 0 11 -9 24 -19
30 -11 5 -22 19 -26 29 -3 11 -15 23 -26 26 -10 4 -19 12 -19 18 0 15 -83 97
-98 97 -7 0 -12 7 -12 15 0 9 -12 21 -27 28 -15 6 -37 21 -49 32 -54 49 -77
64 -151 99 -17 9 -34 20 -38 26 -3 5 -17 10 -30 10 -12 0 -25 7 -29 15 -3 8
-17 15 -31 15 -15 0 -33 7 -41 15 -9 8 -26 15 -39 15 -13 0 -27 5 -30 10 -3 6
-19 10 -35 10 -16 0 -32 5 -35 10 -3 6 -21 10 -40 10 -19 0 -37 5 -41 11 -3 6
-19 9 -35 5 -15 -3 -31 -1 -34 5 -4 5 -21 10 -38 10 -18 0 -90 1 -160 2 -71 1
-130 1 -132 -1z m325 -156 c14 -1 32 -5 40 -9 17 -6 64 -17 95 -21 20 -3 63
-20 97 -37 10 -5 26 -9 37 -9 10 0 24 -7 31 -15 7 -8 20 -15 30 -15 10 0 23
-7 30 -15 7 -8 20 -15 30 -15 10 0 20 -7 24 -15 3 -8 12 -15 19 -15 8 0 24 -9
37 -20 13 -11 29 -20 36 -20 7 0 18 -9 24 -20 6 -11 17 -20 24 -20 8 0 21 -11
30 -25 9 -14 23 -25 31 -25 8 0 15 -7 15 -15 0 -9 11 -21 25 -27 14 -6 25 -17
25 -24 0 -7 9 -18 19 -24 11 -5 22 -19 26 -29 3 -11 15 -23 26 -26 10 -4 19
-15 19 -25 0 -11 9 -24 20 -30 11 -6 20 -19 20 -30 0 -10 6 -23 13 -27 7 -4
18 -20 24 -35 7 -16 17 -28 23 -28 5 0 10 -11 10 -24 0 -13 7 -29 15 -36 8 -7
13 -16 10 -20 -2 -4 2 -16 10 -26 8 -10 15 -29 15 -40 0 -12 7 -27 15 -34 8
-7 12 -16 9 -21 -5 -8 6 -51 27 -107 5 -13 6 -28 3 -34 -4 -6 -22 33 -40 87
-146 438 -505 760 -933 840 -285 52 -608 -21 -849 -193 -123 -88 -261 -232
-337 -352 -68 -107 -148 -295 -170 -397 l-7 -33 135 0 134 0 27 74 c108 296
360 530 656 608 118 31 319 31 435 -1 295 -80 547 -317 655 -618 l23 -63 133
0 c88 0 134 4 134 11 0 5 4 8 10 4 5 -3 9 -18 9 -33 1 -15 2 -79 4 -142 1 -63
-3 -151 -11 -195 -7 -44 -14 -90 -15 -102 -1 -12 -5 -25 -9 -29 -5 -4 -8 -20
-8 -35 0 -15 -5 -31 -10 -34 -6 -3 -10 -17 -10 -29 0 -13 -7 -29 -15 -36 -8
-7 -15 -20 -15 -29 0 -9 -7 -25 -15 -35 -8 -11 -15 -27 -15 -37 0 -9 -7 -19
-15 -23 -8 -3 -15 -12 -15 -20 0 -9 -19 -43 -42 -78 -42 -61 -59 -82 -98 -123
-11 -12 -20 -26 -20 -32 0 -6 -9 -13 -21 -16 -11 -3 -23 -15 -26 -26 -3 -12
-10 -21 -16 -21 -11 0 -20 -8 -81 -67 -13 -13 -26 -23 -30 -23 -3 0 -28 -15
-54 -32 -49 -35 -161 -92 -199 -103 -13 -3 -23 -11 -23 -16 0 -5 -13 -9 -30
-9 -16 0 -30 -4 -30 -10 0 -5 -13 -10 -28 -10 -16 0 -32 -3 -36 -7 -4 -5 -17
-9 -29 -10 -12 -1 -58 -8 -102 -15 -76 -13 -255 -14 -340 -3 -22 3 -50 6 -62
8 -12 1 -25 5 -29 10 -4 4 -16 7 -27 7 -22 0 -81 17 -109 31 -10 5 -27 9 -38
9 -11 0 -20 4 -20 9 0 5 -10 13 -22 16 -36 11 -107 46 -114 56 -3 5 -13 9 -24
9 -10 0 -20 7 -24 15 -3 8 -12 15 -19 15 -8 0 -26 10 -40 23 -14 12 -38 31
-53 42 -44 33 -194 184 -194 195 0 5 -9 15 -20 22 -11 7 -20 21 -20 30 0 10
-9 22 -20 28 -11 6 -18 15 -15 19 2 5 -4 19 -14 32 -10 13 -21 34 -25 47 -4
12 -12 22 -17 22 -5 0 -9 7 -9 16 0 9 -7 30 -16 47 -31 59 -34 67 -34 83 0 8
-5 25 -12 37 -6 12 -13 31 -14 42 -2 11 -10 56 -19 100 -17 85 -27 353 -13
361 4 3 8 17 8 32 -1 37 19 143 30 164 6 10 10 24 10 32 0 8 8 29 17 48 31 61
33 68 33 87 0 10 7 21 15 25 8 3 15 14 15 24 0 10 9 27 20 37 11 10 20 26 20
37 0 10 4 18 9 18 5 0 18 15 30 33 11 17 26 41 33 52 7 11 21 26 31 33 9 7 17
20 17 28 0 8 7 14 15 14 9 0 21 11 27 25 6 14 15 25 21 25 5 0 29 20 54 45 24
25 48 45 52 45 4 0 16 9 26 20 10 11 24 20 31 20 8 0 19 9 26 20 7 11 20 20
29 20 9 0 22 7 29 15 7 8 20 15 30 15 10 0 23 7 30 15 7 8 20 15 30 15 10 0
23 7 30 15 7 8 21 15 31 15 11 0 27 4 37 9 9 5 37 15 62 21 25 7 52 15 60 18
16 5 39 9 102 14 20 2 40 6 43 10 5 5 269 1 325 -6z m-146 -136 c33 0 39 -11
15 -28 -16 -11 -19 -20 -13 -45 l6 -31 -27 18 c-24 16 -28 16 -44 2 -22 -20
-32 -11 -21 18 6 17 4 25 -11 34 -27 17 -24 32 6 32 18 0 29 8 36 28 l11 27
10 -27 c7 -19 17 -28 32 -28z m-356 -49 c25 9 29 -1 10 -31 -10 -16 -9 -23 7
-41 l20 -22 -33 6 c-25 5 -35 2 -44 -13 -17 -27 -28 -25 -28 5 0 19 -8 28 -27
36 l-28 11 28 14 c19 10 27 22 27 41 l0 26 23 -20 c17 -16 27 -19 45 -12z
m698 4 c-5 -21 -2 -27 19 -35 31 -12 31 -18 0 -30 -18 -7 -25 -17 -25 -37 l-1
-28 -19 23 c-14 17 -25 21 -44 16 -29 -7 -34 7 -11 26 14 11 14 15 -1 37 -19
30 -13 39 17 22 20 -10 25 -9 37 10 20 29 36 27 28 -4z m-1027 -176 c24 15 24
15 18 -9 -5 -19 0 -30 21 -47 l27 -22 -32 -1 c-27 0 -32 -4 -38 -32 l-7 -32
-17 30 c-12 21 -22 28 -38 26 -27 -4 -30 10 -8 28 11 9 14 22 9 44 -6 30 -6
30 17 14 22 -14 26 -14 48 1z m1291 -1 c16 -10 24 -10 41 0 27 17 34 10 18
-19 -10 -20 -9 -25 10 -40 28 -23 27 -29 -8 -29 -21 0 -32 -6 -36 -20 -8 -27
-23 -25 -27 3 -2 16 -11 23 -30 25 -33 4 -35 13 -7 30 15 10 19 20 15 38 -7
27 -4 29 24 12z"/>
<path d="M1165 2171 c-297 -78 -533 -300 -636 -598 l-18 -53 844 0 844 0 -19
56 c-103 299 -355 531 -650 599 -92 21 -276 19 -365 -4z m337 -5 c288 -55 529
-259 649 -550 16 -38 29 -70 29 -72 0 -2 -372 -4 -826 -4 l-825 0 7 23 c19 62
91 195 144 266 202 267 515 396 822 337z"/>
<path d="M1315 2155 c-22 -8 -51 -27 -64 -42 -14 -16 -22 -20 -18 -10 5 13 1
17 -14 17 -25 0 -36 -27 -21 -51 7 -11 18 -29 25 -41 6 -12 19 -29 29 -38 9
-8 19 -25 23 -37 5 -19 3 -23 -18 -23 -24 0 -57 27 -57 47 0 13 -54 25 -58 12
-2 -5 -15 -9 -28 -9 -21 0 -24 -4 -22 -27 3 -26 0 -28 -57 -39 -50 -9 -63 -8
-77 4 -16 14 -18 13 -18 -6 0 -13 -6 -22 -15 -22 -8 0 -15 -4 -15 -9 0 -5 -18
-12 -40 -16 -22 -4 -40 -10 -40 -15 0 -4 18 -4 41 1 22 5 53 8 67 6 24 -3 28
-9 32 -48 5 -42 7 -44 42 -49 32 -4 49 -19 118 -95 93 -104 120 -121 158 -106
15 5 88 12 162 14 168 5 207 17 228 71 14 36 14 41 -6 82 -12 24 -26 44 -32
44 -5 0 -10 24 -10 54 0 34 -5 60 -14 69 -8 8 -16 27 -19 43 -4 29 -4 29 -6
-4 l-1 -33 -35 36 c-20 19 -40 35 -45 35 -6 0 -10 9 -10 20 0 13 -7 20 -20 20
-23 0 -25 12 -8 39 16 26 -24 89 -68 107 -40 17 -39 17 -89 -1z m5 -306 c0 -5
-5 -9 -12 -9 -6 0 -20 -7 -30 -17 -17 -15 -18 -15 -18 10 0 14 -4 29 -10 32
-5 3 -10 13 -10 20 0 12 8 10 40 -6 22 -12 40 -25 40 -30z m-214 -14 c9 -38
-1 -41 -36 -12 -32 28 -34 25 22 36 4 0 10 -10 14 -24z m84 -67 c0 -19 -8 -22
-27 -10 -6 4 -9 19 -6 35 5 25 6 26 19 10 7 -10 14 -26 14 -35z"/>
<path d="M1577 2045 c3 -38 7 -72 9 -74 7 -8 3 64 -6 104 -7 31 -7 24 -3 -30z"/>
<path d="M573 1443 c-15 -23 -18 -51 -18 -188 l0 -160 37 -3 37 -3 3 143 3
143 118 3 117 3 0 44 0 45 -140 0 -140 0 -17 -27z"/>
<path d="M1020 1280 l0 -190 40 0 40 0 0 190 0 190 -40 0 -40 0 0 -190z"/>
<path d="M1281 1451 c-26 -26 -36 -100 -21 -145 18 -54 42 -66 137 -66 l83 0
0 -30 0 -30 -115 0 -115 0 0 -45 0 -45 135 0 c125 0 136 1 154 22 39 41 41
153 3 191 -21 20 -49 25 -144 26 -55 1 -58 2 -58 26 l0 25 115 0 115 0 0 45 0
45 -135 0 c-120 0 -137 -2 -154 -19z"/>
<path d="M1741 1444 c-19 -25 -21 -40 -21 -190 l0 -164 40 0 40 0 0 60 0 60
75 0 74 0 3 -57 3 -58 38 -3 37 -3 0 164 c0 151 -2 166 -21 191 -20 25 -23 26
-134 26 -111 0 -114 -1 -134 -26z m209 -109 l0 -45 -75 0 -75 0 0 45 0 45 75
0 75 0 0 -45z"/>
<path d="M682 1283 l3 -38 80 0 80 0 3 38 3 37 -86 0 -86 0 3 -37z"/>
<path d="M904 1186 c-3 -8 -4 -31 -2 -52 3 -37 5 -39 41 -42 l37 -3 0 55 0 56
-35 0 c-21 0 -38 -6 -41 -14z"/>
<path d="M1140 1145 l0 -55 40 0 40 0 0 55 0 55 -40 0 -40 0 0 -55z"/>
<path d="M1608 1145 l4 -56 36 3 37 3 0 50 0 50 -40 3 -40 3 3 -56z"/>
<path d="M2070 1145 l0 -55 40 0 40 0 0 55 0 55 -40 0 -40 0 0 -55z"/>
<path d="M224 1023 c4 -16 33 -82 65 -148 164 -336 435 -567 778 -663 91 -25
112 -27 288 -27 168 0 199 3 270 23 295 84 502 228 690 482 47 64 158 279 171
333 l6 27 -141 0 -141 0 -31 -62 c-124 -246 -346 -429 -606 -500 -112 -30
-325 -30 -438 1 -259 70 -480 252 -604 499 l-31 62 -141 0 -141 0 6 -27z m512
-433 c30 0 31 -11 3 -28 -15 -10 -19 -20 -15 -38 7 -27 4 -29 -24 -12 -16 10
-24 10 -41 0 -20 -13 -21 -12 -14 16 4 20 1 33 -10 42 -22 18 -19 28 8 23 18
-4 26 2 36 24 l14 28 9 -27 c7 -20 16 -28 34 -28z m1330 4 c29 8 31 -5 4 -29
-15 -14 -17 -22 -9 -37 14 -26 6 -32 -20 -16 -17 10 -25 10 -41 0 -27 -16 -28
-16 -23 12 4 17 -1 28 -16 38 -29 18 -26 28 9 28 22 0 30 5 30 18 0 31 13 34
28 6 11 -20 19 -25 38 -20z m-1031 -170 c27 7 32 -3 13 -22 -9 -9 -9 -18 0
-37 16 -35 16 -36 -14 -25 -21 9 -29 6 -45 -12 l-18 -23 -1 27 c0 19 -8 32
-27 42 l-28 14 28 7 c22 6 27 13 27 39 l1 31 19 -24 c15 -17 26 -22 45 -17z
m721 -25 c26 -9 24 -29 -2 -29 -9 0 -14 -11 -14 -30 0 -36 -6 -37 -29 -9 -14
18 -21 20 -39 10 -32 -17 -36 -13 -17 15 15 23 15 27 1 43 -23 25 -20 31 13
25 24 -5 32 -2 43 17 l13 24 3 -28 c2 -19 11 -31 28 -38z m-419 -30 c8 -8 17
-8 31 0 30 16 33 14 26 -14 -5 -19 0 -30 17 -45 l24 -19 -32 -1 c-25 0 -33 -5
-41 -27 l-10 -28 -11 28 c-7 19 -18 27 -36 27 -30 0 -32 11 -5 28 16 10 18 17
10 37 -10 27 6 35 27 14z"/>
<path d="M560 1045 c0 -12 45 -93 81 -147 354 -522 1074 -522 1428 0 36 54 81
135 81 147 0 3 -358 5 -795 5 -437 0 -795 -2 -795 -5z m1563 -11 c15 -16 -83
-164 -167 -253 -154 -160 -343 -248 -562 -258 -235 -12 -435 65 -615 235 -87
81 -210 258 -192 276 8 8 1528 8 1536 0z"/>
<path d="M700 975 c0 -20 5 -25 23 -24 16 1 18 2 5 6 -26 6 -22 31 5 36 19 4
18 4 -5 6 -24 1 -28 -3 -28 -24z"/>
<path d="M771 953 c1 -27 4 -38 6 -26 2 13 13 24 26 26 l22 4 -22 2 c-13 0
-23 7 -23 15 0 8 10 17 23 19 19 4 18 4 -5 6 -27 1 -28 -1 -27 -46z"/>
<path d="M858 993 c6 -2 18 -2 25 0 6 3 1 5 -13 5 -14 0 -19 -2 -12 -5z"/>
<path d="M943 993 c9 -2 23 -2 30 0 6 3 -1 5 -18 5 -16 0 -22 -2 -12 -5z"/>
<path d="M1004 986 c-3 -8 -4 -23 -1 -33 3 -12 5 -9 6 9 1 21 7 28 29 31 l27
4 -28 2 c-16 0 -30 -5 -33 -13z"/>
<path d="M1105 990 c-3 -5 -1 -10 4 -10 6 0 11 5 11 10 0 6 -2 10 -4 10 -3 0
-8 -4 -11 -10z"/>
<path d="M1178 993 c13 -3 19 -9 16 -15 -4 -7 -2 -8 4 -4 21 13 13 26 -15 25
-24 -2 -25 -2 -5 -6z"/>
<path d="M1278 993 c6 -2 18 -2 25 0 6 3 1 5 -13 5 -14 0 -19 -2 -12 -5z"/>
<path d="M1350 991 c0 -6 4 -13 10 -16 6 -3 7 1 4 9 -7 18 -14 21 -14 7z"/>
<path d="M1430 991 c0 -4 11 -6 25 -3 14 2 25 6 25 8 0 2 -11 4 -25 4 -14 0
-25 -4 -25 -9z"/>
<path d="M1583 993 c9 -2 23 -2 30 0 6 3 -1 5 -18 5 -16 0 -22 -2 -12 -5z"/>
<path d="M1825 990 c-3 -5 -1 -10 4 -10 6 0 11 5 11 10 0 6 -2 10 -4 10 -3 0
-8 -4 -11 -10z"/>
<path d="M1880 971 c0 -17 2 -31 4 -31 8 0 13 51 5 56 -5 3 -9 -9 -9 -25z"/>
<path d="M1232 970 c0 -14 2 -19 5 -12 2 6 2 18 0 25 -3 6 -5 1 -5 -13z"/>
<path d="M1402 970 c0 -14 2 -19 5 -12 2 6 2 18 0 25 -3 6 -5 1 -5 -13z"/>
<path d="M1712 960 c0 -19 2 -27 5 -17 2 9 2 25 0 35 -3 9 -5 1 -5 -18z"/>
<path d="M901 954 c0 -11 3 -14 6 -6 3 7 2 16 -1 19 -3 4 -6 -2 -5 -13z"/>
<path d="M930 959 c0 -5 9 -9 20 -9 11 0 20 2 20 4 0 2 -9 6 -20 9 -11 3 -20
1 -20 -4z"/>
<path d="M1322 950 c0 -14 2 -19 5 -12 2 6 2 18 0 25 -3 6 -5 1 -5 -13z"/>
<path d="M1430 946 c0 -13 3 -16 8 -10 4 7 16 14 27 16 17 3 15 5 -7 10 -24 4
-28 2 -28 -16z"/>
<path d="M1841 956 c-1 -12 -6 -16 -16 -12 -8 3 -15 2 -15 -3 0 -5 11 -11 25
-13 27 -6 28 -3 15 27 -8 18 -9 19 -9 1z"/>
<path d="M1967 946 c-5 -15 -6 -31 -2 -34 3 -3 5 0 5 6 0 7 9 12 20 12 11 0
20 4 20 10 0 5 -6 7 -14 4 -9 -3 -16 2 -18 13 -3 13 -6 11 -11 -11z"/>
<path d="M1121 951 c-1 -7 -7 -11 -16 -7 -8 3 -15 1 -15 -4 0 -6 9 -10 20 -10
11 0 20 -5 20 -12 0 -6 2 -9 5 -6 3 3 1 16 -4 29 -5 13 -10 18 -10 10z"/>
<path d="M1640 939 c0 -5 9 -9 19 -9 11 0 22 -6 24 -12 4 -8 6 -7 6 3 1 10 -9
19 -24 21 -14 3 -25 1 -25 -3z"/>
<path d="M1927 935 c-4 -8 -2 -17 3 -20 6 -4 10 3 10 14 0 25 -6 27 -13 6z"/>
<path d="M701 924 c0 -11 3 -14 6 -6 3 7 2 16 -1 19 -3 4 -6 -2 -5 -13z"/>
<path d="M1231 924 c0 -11 3 -14 6 -6 3 7 2 16 -1 19 -3 4 -6 -2 -5 -13z"/>
<path d="M1387 923 c3 -7 9 -13 14 -13 5 0 9 6 9 13 0 8 -6 14 -14 14 -8 0
-12 -6 -9 -14z"/>
<path d="M1438 908 c5 -5 16 -8 23 -6 8 3 3 7 -10 11 -17 4 -21 3 -13 -5z"/>
<path d="M858 903 c7 -3 16 -2 19 1 4 3 -2 6 -13 5 -11 0 -14 -3 -6 -6z"/>
<path d="M1188 903 c7 -3 16 -2 19 1 4 3 -2 6 -13 5 -11 0 -14 -3 -6 -6z"/>
<path d="M1220 826 c0 -2 9 -6 20 -9 11 -3 18 -1 14 4 -5 9 -34 13 -34 5z"/>
<path d="M1368 823 c7 -3 16 -2 19 1 4 3 -2 6 -13 5 -11 0 -14 -3 -6 -6z"/>
<path d="M1502 800 c0 -14 2 -19 5 -12 2 6 2 18 0 25 -3 6 -5 1 -5 -13z"/>
<path d="M1134 785 c11 -8 23 -15 28 -15 17 0 7 -29 -12 -33 -17 -4 -17 -4 2
-3 36 2 34 33 -4 51 -28 14 -30 14 -14 0z"/>
<path d="M1531 760 c1 -17 3 -19 6 -7 3 10 14 17 29 17 13 0 24 3 24 8 0 4
-13 7 -30 7 -26 0 -30 -4 -29 -25z"/>
<path d="M1430 770 c0 -5 5 -10 11 -10 5 0 7 5 4 10 -3 6 -8 10 -11 10 -2 0
-4 -4 -4 -10z"/>
<path d="M1466 755 c4 -8 8 -15 10 -15 2 0 4 7 4 15 0 8 -4 15 -10 15 -5 0 -7
-7 -4 -15z"/>
<path d="M1501 754 c0 -11 3 -14 6 -6 3 7 2 16 -1 19 -3 4 -6 -2 -5 -13z"/>
<path d="M1228 733 c7 -3 16 -2 19 1 4 3 -2 6 -13 5 -11 0 -14 -3 -6 -6z"/>
</g>
</svg>
